<mxfile host="app.diagrams.net" modified="2022-08-27T01:48:14.708Z" agent="5.0 (Windows NT 10.0; Win64; x64) AppleWebKit/537.36 (KHTML, like Gecko) Chrome/104.0.5112.102 Safari/537.36 Edg/104.0.1293.63" etag="BHzTwNgOSw8sOGR6NW60" version="20.2.7" type="github" pages="2">
  <diagram name="Operator" id="c7558073-3199-34d8-9f00-42111426c3f3">
    <mxGraphModel dx="1695" dy="482" grid="1" gridSize="10" guides="1" tooltips="1" connect="1" arrows="1" fold="1" page="1" pageScale="1" pageWidth="827" pageHeight="1169" background="#FFFCFC" math="0" shadow="1">
      <root>
        <mxCell id="0" />
        <mxCell id="1" parent="0" />
        <mxCell id="GHdDQz3oRMxJ8-lzVNFq-96" value="Start" style="ellipse;whiteSpace=wrap;html=1;" vertex="1" parent="1">
          <mxGeometry x="-37" y="46" width="75" height="49" as="geometry" />
        </mxCell>
        <mxCell id="GHdDQz3oRMxJ8-lzVNFq-98" value="Login Screen of the Application&amp;nbsp;" style="rounded=1;whiteSpace=wrap;html=1;" vertex="1" parent="1">
          <mxGeometry x="-57" y="128" width="120" height="60" as="geometry" />
        </mxCell>
        <mxCell id="mUlHBePX90zy0dekhjB--25" style="edgeStyle=orthogonalEdgeStyle;rounded=0;orthogonalLoop=1;jettySize=auto;html=1;exitX=0;exitY=0.5;exitDx=0;exitDy=0;entryX=1;entryY=0.5;entryDx=0;entryDy=0;fontSize=12;" edge="1" parent="1" source="GHdDQz3oRMxJ8-lzVNFq-103" target="GHdDQz3oRMxJ8-lzVNFq-106">
          <mxGeometry relative="1" as="geometry" />
        </mxCell>
        <mxCell id="mUlHBePX90zy0dekhjB--29" style="edgeStyle=orthogonalEdgeStyle;rounded=0;orthogonalLoop=1;jettySize=auto;html=1;exitX=0.5;exitY=1;exitDx=0;exitDy=0;entryX=0.5;entryY=0;entryDx=0;entryDy=0;fontSize=12;" edge="1" parent="1" source="GHdDQz3oRMxJ8-lzVNFq-103" target="GHdDQz3oRMxJ8-lzVNFq-104">
          <mxGeometry relative="1" as="geometry" />
        </mxCell>
        <mxCell id="GHdDQz3oRMxJ8-lzVNFq-103" value="Authentication of&amp;nbsp;&lt;br&gt;Operator" style="rhombus;whiteSpace=wrap;html=1;" vertex="1" parent="1">
          <mxGeometry x="-54.5" y="434" width="110" height="110" as="geometry" />
        </mxCell>
        <mxCell id="mUlHBePX90zy0dekhjB--28" style="edgeStyle=orthogonalEdgeStyle;rounded=0;orthogonalLoop=1;jettySize=auto;html=1;exitX=0.5;exitY=0;exitDx=0;exitDy=0;entryX=0;entryY=0.5;entryDx=0;entryDy=0;fontSize=12;" edge="1" parent="1" source="GHdDQz3oRMxJ8-lzVNFq-106" target="GHdDQz3oRMxJ8-lzVNFq-98">
          <mxGeometry relative="1" as="geometry" />
        </mxCell>
        <mxCell id="GHdDQz3oRMxJ8-lzVNFq-106" value="Authentication not successful" style="ellipse;whiteSpace=wrap;html=1;" vertex="1" parent="1">
          <mxGeometry x="-250" y="459" width="120" height="60" as="geometry" />
        </mxCell>
        <mxCell id="mUlHBePX90zy0dekhjB--7" value="Intermate the SEC HQ&amp;nbsp; Helpdesk for updation of Data from the Backend" style="shape=parallelogram;perimeter=parallelogramPerimeter;whiteSpace=wrap;html=1;fixedSize=1;" vertex="1" parent="1">
          <mxGeometry x="-452" y="915" width="236" height="60" as="geometry" />
        </mxCell>
        <mxCell id="mUlHBePX90zy0dekhjB--16" value="" style="group;" vertex="1" connectable="0" parent="1">
          <mxGeometry x="-466" y="585" width="850" height="690" as="geometry" />
        </mxCell>
        <mxCell id="GHdDQz3oRMxJ8-lzVNFq-97" value="Voter comes to cast vote on the Polling Day" style="rounded=1;whiteSpace=wrap;html=1;" vertex="1" parent="mUlHBePX90zy0dekhjB--16">
          <mxGeometry x="700" y="125" width="120" height="60" as="geometry" />
        </mxCell>
        <mxCell id="GHdDQz3oRMxJ8-lzVNFq-100" value="Operator to Download the Electoral Roll Data for that specific Polling Station using Pin" style="rounded=0;whiteSpace=wrap;html=1;" vertex="1" parent="mUlHBePX90zy0dekhjB--16">
          <mxGeometry x="405" y="80" width="125" height="75" as="geometry" />
        </mxCell>
        <mxCell id="GHdDQz3oRMxJ8-lzVNFq-122" style="edgeStyle=orthogonalEdgeStyle;rounded=0;orthogonalLoop=1;jettySize=auto;html=1;exitX=0.5;exitY=1;exitDx=0;exitDy=0;entryX=0.5;entryY=0;entryDx=0;entryDy=0;fontSize=12;" edge="1" parent="mUlHBePX90zy0dekhjB--16" source="GHdDQz3oRMxJ8-lzVNFq-104" target="GHdDQz3oRMxJ8-lzVNFq-100">
          <mxGeometry relative="1" as="geometry" />
        </mxCell>
        <mxCell id="GHdDQz3oRMxJ8-lzVNFq-104" value="Authentication Successful" style="ellipse;whiteSpace=wrap;html=1;" vertex="1" parent="mUlHBePX90zy0dekhjB--16">
          <mxGeometry x="405" width="120" height="60" as="geometry" />
        </mxCell>
        <mxCell id="GHdDQz3oRMxJ8-lzVNFq-115" value="Validation&lt;br&gt;of&lt;br&gt;Pin" style="rhombus;whiteSpace=wrap;html=1;" vertex="1" parent="mUlHBePX90zy0dekhjB--16">
          <mxGeometry x="410" y="190" width="110" height="90" as="geometry" />
        </mxCell>
        <mxCell id="GHdDQz3oRMxJ8-lzVNFq-123" style="edgeStyle=orthogonalEdgeStyle;rounded=0;orthogonalLoop=1;jettySize=auto;html=1;exitX=0.5;exitY=1;exitDx=0;exitDy=0;entryX=0.5;entryY=0;entryDx=0;entryDy=0;fontSize=12;" edge="1" parent="mUlHBePX90zy0dekhjB--16" source="GHdDQz3oRMxJ8-lzVNFq-100" target="GHdDQz3oRMxJ8-lzVNFq-115">
          <mxGeometry relative="1" as="geometry" />
        </mxCell>
        <mxCell id="GHdDQz3oRMxJ8-lzVNFq-120" style="edgeStyle=orthogonalEdgeStyle;rounded=0;orthogonalLoop=1;jettySize=auto;html=1;exitX=0.5;exitY=0;exitDx=0;exitDy=0;entryX=0;entryY=0.5;entryDx=0;entryDy=0;fontSize=12;" edge="1" parent="mUlHBePX90zy0dekhjB--16" source="GHdDQz3oRMxJ8-lzVNFq-116" target="GHdDQz3oRMxJ8-lzVNFq-100">
          <mxGeometry relative="1" as="geometry" />
        </mxCell>
        <mxCell id="GHdDQz3oRMxJ8-lzVNFq-116" value="Pin&amp;nbsp; Not Validated" style="ellipse;whiteSpace=wrap;html=1;" vertex="1" parent="mUlHBePX90zy0dekhjB--16">
          <mxGeometry x="220" y="205" width="120" height="60" as="geometry" />
        </mxCell>
        <mxCell id="GHdDQz3oRMxJ8-lzVNFq-117" value="" style="edgeStyle=orthogonalEdgeStyle;rounded=0;orthogonalLoop=1;jettySize=auto;html=1;fontSize=12;" edge="1" parent="mUlHBePX90zy0dekhjB--16" source="GHdDQz3oRMxJ8-lzVNFq-115" target="GHdDQz3oRMxJ8-lzVNFq-116">
          <mxGeometry relative="1" as="geometry" />
        </mxCell>
        <mxCell id="GHdDQz3oRMxJ8-lzVNFq-118" value="Pin Validated, Data Downloaded in Internal Memory for offline usage" style="ellipse;whiteSpace=wrap;html=1;" vertex="1" parent="mUlHBePX90zy0dekhjB--16">
          <mxGeometry x="388.75" y="310" width="152.5" height="80" as="geometry" />
        </mxCell>
        <mxCell id="GHdDQz3oRMxJ8-lzVNFq-119" value="" style="edgeStyle=orthogonalEdgeStyle;rounded=0;orthogonalLoop=1;jettySize=auto;html=1;fontSize=12;" edge="1" parent="mUlHBePX90zy0dekhjB--16" source="GHdDQz3oRMxJ8-lzVNFq-115" target="GHdDQz3oRMxJ8-lzVNFq-118">
          <mxGeometry relative="1" as="geometry" />
        </mxCell>
        <mxCell id="GHdDQz3oRMxJ8-lzVNFq-121" value="&amp;nbsp; &amp;nbsp; &amp;nbsp; &amp;nbsp;Operator Contacts the Presiding Officer for generation of new Pin" style="shape=parallelogram;perimeter=parallelogramPerimeter;whiteSpace=wrap;html=1;fixedSize=1;fontSize=12;" vertex="1" parent="mUlHBePX90zy0dekhjB--16">
          <mxGeometry x="95" y="113" width="220" height="55" as="geometry" />
        </mxCell>
        <mxCell id="mUlHBePX90zy0dekhjB--2" style="edgeStyle=orthogonalEdgeStyle;rounded=0;orthogonalLoop=1;jettySize=auto;html=1;exitX=0.5;exitY=1;exitDx=0;exitDy=0;fontSize=12;" edge="1" parent="mUlHBePX90zy0dekhjB--16" source="GHdDQz3oRMxJ8-lzVNFq-128">
          <mxGeometry relative="1" as="geometry">
            <mxPoint x="465" y="520" as="targetPoint" />
          </mxGeometry>
        </mxCell>
        <mxCell id="GHdDQz3oRMxJ8-lzVNFq-128" value="Downloaded Data to be viewed and- verified by Presiding Officer" style="rounded=0;whiteSpace=wrap;html=1;fontSize=12;" vertex="1" parent="mUlHBePX90zy0dekhjB--16">
          <mxGeometry x="405" y="420" width="120" height="60" as="geometry" />
        </mxCell>
        <mxCell id="GHdDQz3oRMxJ8-lzVNFq-130" style="edgeStyle=orthogonalEdgeStyle;rounded=0;orthogonalLoop=1;jettySize=auto;html=1;exitX=0.5;exitY=1;exitDx=0;exitDy=0;entryX=0.5;entryY=0;entryDx=0;entryDy=0;fontSize=12;" edge="1" parent="mUlHBePX90zy0dekhjB--16" source="GHdDQz3oRMxJ8-lzVNFq-118" target="GHdDQz3oRMxJ8-lzVNFq-128">
          <mxGeometry relative="1" as="geometry" />
        </mxCell>
        <mxCell id="GHdDQz3oRMxJ8-lzVNFq-129" value="Provision to download the PDF to view the complete Electoral Roll&amp;nbsp; Data for Verification" style="shape=parallelogram;perimeter=parallelogramPerimeter;whiteSpace=wrap;html=1;fixedSize=1;fontSize=12;" vertex="1" parent="mUlHBePX90zy0dekhjB--16">
          <mxGeometry x="80" y="431" width="260" height="60" as="geometry" />
        </mxCell>
        <mxCell id="GHdDQz3oRMxJ8-lzVNFq-133" style="edgeStyle=orthogonalEdgeStyle;rounded=0;orthogonalLoop=1;jettySize=auto;html=1;exitX=0;exitY=0.5;exitDx=0;exitDy=0;entryX=1;entryY=0.5;entryDx=0;entryDy=0;fontSize=12;" edge="1" parent="mUlHBePX90zy0dekhjB--16" source="GHdDQz3oRMxJ8-lzVNFq-128" target="GHdDQz3oRMxJ8-lzVNFq-129">
          <mxGeometry relative="1" as="geometry" />
        </mxCell>
        <mxCell id="mUlHBePX90zy0dekhjB--1" value="Data &lt;br&gt;Verification" style="rhombus;whiteSpace=wrap;html=1;fontSize=12;" vertex="1" parent="mUlHBePX90zy0dekhjB--16">
          <mxGeometry x="421" y="519" width="90" height="90" as="geometry" />
        </mxCell>
        <mxCell id="mUlHBePX90zy0dekhjB--3" value="Data Not Verified" style="ellipse;whiteSpace=wrap;html=1;" vertex="1" parent="mUlHBePX90zy0dekhjB--16">
          <mxGeometry x="236" y="534" width="120" height="60" as="geometry" />
        </mxCell>
        <mxCell id="mUlHBePX90zy0dekhjB--4" value="" style="edgeStyle=orthogonalEdgeStyle;rounded=0;orthogonalLoop=1;jettySize=auto;html=1;fontSize=12;" edge="1" parent="mUlHBePX90zy0dekhjB--16" source="mUlHBePX90zy0dekhjB--1" target="mUlHBePX90zy0dekhjB--3">
          <mxGeometry relative="1" as="geometry" />
        </mxCell>
        <mxCell id="mUlHBePX90zy0dekhjB--5" value="Data Verified" style="ellipse;whiteSpace=wrap;html=1;" vertex="1" parent="mUlHBePX90zy0dekhjB--16">
          <mxGeometry x="406" y="630" width="120" height="60" as="geometry" />
        </mxCell>
        <mxCell id="mUlHBePX90zy0dekhjB--6" value="" style="edgeStyle=orthogonalEdgeStyle;rounded=0;orthogonalLoop=1;jettySize=auto;html=1;fontSize=12;" edge="1" parent="mUlHBePX90zy0dekhjB--16" source="mUlHBePX90zy0dekhjB--1" target="mUlHBePX90zy0dekhjB--5">
          <mxGeometry relative="1" as="geometry" />
        </mxCell>
        <mxCell id="mUlHBePX90zy0dekhjB--11" style="edgeStyle=orthogonalEdgeStyle;rounded=0;orthogonalLoop=1;jettySize=auto;html=1;exitX=1;exitY=0.25;exitDx=0;exitDy=0;entryX=0.2;entryY=0;entryDx=0;entryDy=0;entryPerimeter=0;fontSize=12;" edge="1" parent="mUlHBePX90zy0dekhjB--16" source="mUlHBePX90zy0dekhjB--9" target="GHdDQz3oRMxJ8-lzVNFq-100">
          <mxGeometry relative="1" as="geometry" />
        </mxCell>
        <mxCell id="mUlHBePX90zy0dekhjB--12" value="Presiding Officer Enters the PIN and Handover the Tablet Device to the Operator for Verification and authentication of the Voter using Face Recognition System&amp;nbsp;" style="whiteSpace=wrap;html=1;" vertex="1" parent="mUlHBePX90zy0dekhjB--16">
          <mxGeometry x="606" y="630" width="244" height="60" as="geometry" />
        </mxCell>
        <mxCell id="mUlHBePX90zy0dekhjB--13" value="" style="edgeStyle=orthogonalEdgeStyle;rounded=0;orthogonalLoop=1;jettySize=auto;html=1;fontSize=12;" edge="1" parent="mUlHBePX90zy0dekhjB--16" source="mUlHBePX90zy0dekhjB--5" target="mUlHBePX90zy0dekhjB--12">
          <mxGeometry relative="1" as="geometry" />
        </mxCell>
        <mxCell id="mUlHBePX90zy0dekhjB--9" value="Downloading of Data from the Central Server Again&amp;nbsp;" style="whiteSpace=wrap;html=1;" vertex="1" parent="mUlHBePX90zy0dekhjB--16">
          <mxGeometry x="-9" y="46" width="120" height="60" as="geometry" />
        </mxCell>
        <mxCell id="mUlHBePX90zy0dekhjB--8" value="" style="edgeStyle=orthogonalEdgeStyle;rounded=0;orthogonalLoop=1;jettySize=auto;html=1;fontSize=12;" edge="1" parent="1" source="mUlHBePX90zy0dekhjB--3" target="mUlHBePX90zy0dekhjB--7">
          <mxGeometry relative="1" as="geometry">
            <Array as="points">
              <mxPoint x="-395" y="1201" />
            </Array>
          </mxGeometry>
        </mxCell>
        <mxCell id="mUlHBePX90zy0dekhjB--23" style="edgeStyle=orthogonalEdgeStyle;rounded=0;orthogonalLoop=1;jettySize=auto;html=1;exitX=0.5;exitY=1;exitDx=0;exitDy=0;fontSize=12;" edge="1" parent="1" source="mUlHBePX90zy0dekhjB--19" target="mUlHBePX90zy0dekhjB--21">
          <mxGeometry relative="1" as="geometry" />
        </mxCell>
        <mxCell id="mUlHBePX90zy0dekhjB--26" style="edgeStyle=orthogonalEdgeStyle;rounded=0;orthogonalLoop=1;jettySize=auto;html=1;exitX=0;exitY=0.5;exitDx=0;exitDy=0;entryX=1;entryY=0.5;entryDx=0;entryDy=0;fontSize=12;" edge="1" parent="1" source="mUlHBePX90zy0dekhjB--19" target="mUlHBePX90zy0dekhjB--22">
          <mxGeometry relative="1" as="geometry" />
        </mxCell>
        <mxCell id="mUlHBePX90zy0dekhjB--19" value="Connected to Internet" style="rhombus;whiteSpace=wrap;html=1;fontSize=12;" vertex="1" parent="1">
          <mxGeometry x="-47.5" y="219" width="94.59" height="94" as="geometry" />
        </mxCell>
        <mxCell id="mUlHBePX90zy0dekhjB--10" value="" style="edgeStyle=orthogonalEdgeStyle;rounded=0;orthogonalLoop=1;jettySize=auto;html=1;fontSize=12;" edge="1" parent="1" source="mUlHBePX90zy0dekhjB--7" target="mUlHBePX90zy0dekhjB--9">
          <mxGeometry relative="1" as="geometry">
            <Array as="points">
              <mxPoint x="-390" y="820" />
              <mxPoint x="-390" y="820" />
            </Array>
          </mxGeometry>
        </mxCell>
        <mxCell id="mUlHBePX90zy0dekhjB--24" style="edgeStyle=orthogonalEdgeStyle;rounded=0;orthogonalLoop=1;jettySize=auto;html=1;exitX=0.5;exitY=1;exitDx=0;exitDy=0;entryX=0.5;entryY=0;entryDx=0;entryDy=0;fontSize=12;" edge="1" parent="1" source="mUlHBePX90zy0dekhjB--21" target="GHdDQz3oRMxJ8-lzVNFq-103">
          <mxGeometry relative="1" as="geometry" />
        </mxCell>
        <mxCell id="mUlHBePX90zy0dekhjB--21" value="Yes" style="ellipse;whiteSpace=wrap;html=1;fontSize=12;" vertex="1" parent="1">
          <mxGeometry x="-37" y="350" width="75" height="50" as="geometry" />
        </mxCell>
        <mxCell id="mUlHBePX90zy0dekhjB--27" style="edgeStyle=orthogonalEdgeStyle;rounded=0;orthogonalLoop=1;jettySize=auto;html=1;exitX=0.5;exitY=0;exitDx=0;exitDy=0;entryX=0;entryY=0.5;entryDx=0;entryDy=0;fontSize=12;" edge="1" parent="1" source="mUlHBePX90zy0dekhjB--22" target="GHdDQz3oRMxJ8-lzVNFq-98">
          <mxGeometry relative="1" as="geometry" />
        </mxCell>
        <mxCell id="mUlHBePX90zy0dekhjB--22" value="No" style="ellipse;whiteSpace=wrap;html=1;fontSize=12;" vertex="1" parent="1">
          <mxGeometry x="-173" y="241" width="75" height="50" as="geometry" />
        </mxCell>
      </root>
    </mxGraphModel>
  </diagram>
  <diagram id="RlYxuOjdtr7DHh3LUo6h" name="Voter">
    <mxGraphModel dx="868" dy="482" grid="1" gridSize="10" guides="1" tooltips="1" connect="1" arrows="1" fold="1" page="1" pageScale="1" pageWidth="850" pageHeight="1100" math="0" shadow="0">
      <root>
        <mxCell id="0" />
        <mxCell id="1" parent="0" />
      </root>
    </mxGraphModel>
  </diagram>
</mxfile>
